<svg xmlns="http://www.w3.org/2000/svg" xml:space="preserve" viewBox="0 0 2200 2200" width="2200" height="2200"><path fill="#111923" d="M972 2202H2V2h2200v2200H972m686-672-1-2 2-8 32-140 12-36 19 2h335c19-1 27-9 27-27l1-4v-91l-1-10c-1-12-7-18-19-20l-16-1h-70V924h75c23 0 30-8 31-30v-94l-1-9c-1-12-8-19-20-21h-350c-19 0-27 8-27 26v102c0 17 8 24 24 26h82c3 20 2 261-1 269h-70l-17 1c-9 2-15 7-17 16l-2 15-1 76c-14 2-23 10-28 23l-7 22-3 8-5-19c-5-14-12-28-24-38-9-9-20-13-32-14-22 0-42 7-59 20-19 14-35 33-47 53-3 5-6 9-10 12-23 17-48 31-73 43l-17 7v-9c2-22 1-43-8-63l1-4c9-3 12-10 13-18v-153l1-12h131l16-1c11-1 18-8 20-19v-11a34847 34847 0 0 0 0-102c-2-11-8-18-20-20h-136l-11-1v-83h204c19 0 27-7 28-26v-96c0-23-8-30-31-30a532103 532103 0 0 0-364 0c-11 2-17 8-18 20l-1 17a779893 779893 0 0 0 1 518l4 13-10 14a222 222 0 0 0-22 184c10 22 26 38 51 42 34 5 65-4 91-28 22-19 36-44 46-72 3-7 3-15 7-20 5-5 13-6 20-9l53-32 10-6-3 11c-7 26-9 53-5 80 3 21 9 40 24 56 9 9 19 15 32 16 24 3 45-2 65-15 13-9 25-20 36-32l3-6 3 2-11 40c-1 3-3 5-6 7l-103 89c-12 10-22 22-31 33a97 97 0 0 0-22 50c-3 20-3 40 0 61 4 27 13 53 30 75 8 10 17 19 29 24 26 11 43 7 57-13 8-10 14-22 20-33 16-34 25-70 34-106l36-162c2-6 4-11 10-14a599 599 0 0 0 159-146l5-11c3-8-1-12-10-11-7 0-13 5-18 11-9 10-17 21-27 30-22 21-46 41-69 61-11 9-23 15-36 22m-568-336-24-1h-56l-9-1c-2-16-1-260 1-268h74c23 0 30-8 30-31V793c-1-15-8-22-23-23H735c-18 1-26 8-27 26v97l1 11c2 11 8 17 18 19l15 1h63l10 1v268h-85c-14 2-20 9-22 23v99l2 14c2 8 7 13 14 15l17 2h171l144 1v3l-47 197c-2 7-1 12 3 17 9 13 25 18 39 13 5-2 8-5 9-10l6-24 100-386c4-17 9-35 8-54 0-12-5-17-17-17l-22 2c-12 3-23 4-34 11 4 33-1 64-11 95M503 770h-49c-16 1-23 7-25 23v167l-1 11H295V806l-1-18c-1-9-7-15-16-17l-15-1H138c-16 1-23 8-24 24v525c1 18 9 26 26 27h124l13-2c10-2 16-8 17-17l1-18v-169c15-2 126-1 134 1v178c2 19 9 26 28 27h122c23 0 31-8 31-31V801c0-24-7-31-31-31h-76z"/><path fill="#809AB5" d="M504 770h75c24 0 31 7 31 31v514c0 23-8 31-31 31H457c-19-1-26-8-28-27v-178c-8-2-119-3-134-1v169l-1 18c-1 9-7 15-17 17l-13 2H140c-17-1-25-9-26-27V794c1-16 8-23 24-24h125l15 1c9 2 15 8 16 17l1 18v165h133l1-11V793c2-16 9-22 25-23h50zM1686 1300v-75l2-15c2-9 8-14 17-16l17-1h70c3-8 4-249 1-269h-82c-16-2-24-9-24-26V796c0-18 8-26 27-26h350c12 2 19 9 20 21l1 9v94c-1 22-8 30-31 30h-75v269h70l16 1c12 2 18 8 19 20l1 10v91l-1 4c0 18-8 26-27 27h-335l-20-3 10-27c3-7 2-9-4-13-7-3-15-3-22-3zM1056 1346H741l-17-2c-7-2-12-7-14-15l-2-14v-99c2-14 8-21 22-23h85V925l-10-1h-63l-15-1c-10-2-16-8-18-19l-1-11v-97c1-18 9-25 27-26h348c15 1 22 8 23 23v100c0 23-7 31-30 31h-74c-2 8-3 252-1 268l9 1h56l25 2c-6 32-14 63-21 95l-14 56zM1211 1336l-5-11-1-16a779893 779893 0 0 1 1-519c1-12 7-18 18-20h364c23 0 31 7 31 30v96c-1 19-9 26-28 26h-204v83l11 1h136c12 2 18 9 20 20v10a34847 34847 0 0 1 0 103c-2 11-9 18-20 19l-16 1h-131l-1 12v153c-1 8-4 15-14 18l-8-10c-22-32-51-49-91-42-26 5-47 17-59 42l-3 4z"/><path fill="#E3C5E0" d="m1211 1337 3-5c12-25 33-37 59-42 40-7 69 10 91 42l7 10 1 4c9 20 10 41 8 63v9l17-7c25-12 50-26 73-43 4-3 7-7 10-12 12-20 28-39 47-53 17-13 37-20 59-20 12 1 23 5 32 14 12 10 19 24 24 38l5 19 3-8 7-22c5-13 14-21 28-24 8 0 16 0 23 3 6 4 7 6 4 13l-10 26-11 38-32 140-2 9 2 2c12-8 24-14 35-23 23-20 47-40 69-61 10-9 18-20 27-30 5-6 11-11 18-11 9-1 13 3 10 11l-5 11a599 599 0 0 1-159 145c-6 4-8 9-10 15l-36 162c-9 36-18 72-34 106-6 11-12 23-20 33-14 20-31 24-57 13-12-5-21-14-29-24-17-22-26-48-30-75-3-21-3-41 0-61 3-19 10-36 22-50 9-11 19-23 31-33l103-89c3-2 5-4 6-7l11-40-3-2-3 6c-11 12-23 23-36 32a97 97 0 0 1-65 15c-13-1-23-7-32-16a97 97 0 0 1-24-56c-4-27-2-54 5-80l3-11-10 6-53 32c-7 3-15 4-20 9-4 5-4 13-7 20-10 28-24 53-46 72-26 24-57 33-91 28-25-4-41-20-51-42a222 222 0 0 1 23-183l10-16m114 7-3-7c-6-9-13-13-24-11-13 3-24 8-34 20-5 4-8 9-8 15 0 12 0 24 3 36 3 17 14 28 32 33 12 3 24 4 37 1 7-23 8-47 3-70l-6-17m258 282-57 54-20 26a92 92 0 0 0-19 48c-1 19 0 38 1 57 0 8 2 15 4 22 6 15 21 17 32 5l8-15 14-40 38-150v-8l1 1h-2m44-184 5-27c0-4-2-7-6-10-3-2-7-6-8-10l-4-23c-1-14-3-27-10-38-8-13-18-17-31-12-6 1-12 4-16 8-8 6-16 14-22 22-25 35-37 75-37 117 0 14 2 27 7 39 4 10 10 16 20 18 16 5 31 3 44-6 29-18 48-44 58-78m-332 32c-15-1-29-5-41-15-11-8-19-18-26-30l-5-8c-9 28-12 54-7 81 1 7 4 14 7 21 7 14 19 19 34 16 8-2 15-5 22-10 19-14 28-34 37-55h-21m160-62 1-1h-1v1z"/><path fill="#E4C5E0" d="m1056 1347 14-57 22-95c8-32 13-63 9-96 11-7 22-8 34-11l22-2c12 0 17 5 17 17 1 19-4 37-8 54l-100 386-6 24c-1 5-4 8-9 10-14 5-30 0-39-13-4-5-5-10-3-17l47-197v-3z"/><path fill="#131A25" d="M1627 1443c-10 33-29 59-58 77-13 9-28 11-44 6-10-2-16-8-20-18-5-12-7-25-7-39 0-42 12-82 37-117 6-8 14-16 22-22 4-4 10-7 16-8 13-5 23-1 31 12 7 11 9 24 10 38l4 23c1 4 5 8 8 10 4 3 6 6 6 10l-5 28z"/><path fill="#141B26" d="M1584 1624v9l-38 150-14 40-8 15c-11 12-26 10-32-5-2-7-4-14-4-22-1-19-2-38-1-57 1-18 8-34 19-48l20-26 57-55 1-1z"/><path fill="#151C26" d="M1296 1474h20c-9 21-18 41-37 55-7 5-14 8-22 10-15 3-27-2-34-16-3-7-6-14-7-21-5-27-2-53 7-81l5 8c7 12 15 22 26 30 12 10 26 14 42 15z"/><path fill="#131B25" d="m1325 1345 6 16c5 23 4 47-3 70-13 3-25 2-37-1-18-5-29-16-32-33-3-12-3-24-3-36 0-6 3-11 10-15l59-1z"/><path fill="#809AB5" d="m1325 1344-59 1c8-11 19-16 32-19 11-2 18 2 24 11l3 7z"/><path fill="#111923" d="M1455 1412v-1h1l-1 1zM1659 1531l-2-1 2 1z"/><path fill="#141B26" d="m1584 1624 1 2-1-1v-1z"/></svg>
