<svg xmlns="http://www.w3.org/2000/svg" xml:space="preserve" viewBox="0 0 2000 2000" width="2000" height="2000"><path fill="#111A23" d="M1303 2001H1V1h2000v2000h-698M89.821 1430.5c.686 8.043.53 16.27 2.228 24.094 3.863 17.797 18.81 29.355 36.972 29.374 58.498.061 116.995.105 175.493-.013 18.113-.037 36.228-.488 54.336-.976 16.62-.448 30.58-11.888 33.762-28.115 1.45-7.398 2.177-15.057 2.188-22.6.141-96.332.093-192.666.093-288.999v-5.83h224.294v6.17c0 96.167-.016 192.333.037 288.5.003 6.319-.157 12.76.943 18.935 3.646 20.465 19.241 32.788 40.644 32.803 70.832.047 141.665.13 212.497.108 5.757-.002 11.578-.273 17.259-1.142 18.14-2.776 27.597-11.388 31.351-29.187 1.56-7.39 2.266-15.098 2.27-22.661.11-275.666.116-551.332.038-826.998-.005-17.597-.66-35.198-1.25-52.79-.487-14.57-9.193-27.004-23.194-31.043-8.657-2.497-17.978-3.693-27.009-3.734-66.831-.3-133.665-.18-200.498-.128-5.49.005-11.02.164-16.461.823-16.018 1.938-28.954 8.705-33.407 25.376-2.187 8.186-3.07 16.947-3.089 25.45-.208 94.166-.131 188.333-.131 282.5v5.543H394.893v-6.236c0-88.666.067-177.333-.08-265.999-.02-11.571-.744-23.179-1.853-34.701-1.382-14.36-8.814-24.96-22.897-28.965-8.615-2.45-17.872-3.626-26.848-3.666-67.165-.292-134.332-.176-201.499-.125a152.9 152.9 0 0 0-15.464.802c-19.548 2.005-30.824 11.658-34.847 30.75-1.447 6.867-1.522 14.11-1.524 21.182-.07 286.833-.06 573.665-.06 861.498m1814.43-96c0-105.992.026-211.983-.054-317.975-.005-7.47-.347-14.995-1.294-22.397-2.834-22.14-15.082-36.1-36.814-41.08-8.658-1.983-17.754-2.815-26.656-2.848-62.66-.235-125.323-.195-187.985-.04-8.112.02-16.33.565-24.308 1.96-19.651 3.432-33.709 14.051-38.335 34.14a135.618 135.618 0 0 0-3.44 29.58c-.295 64.66-.152 129.323-.152 193.985v6.024H1428.75v-6.709c0-212.984.02-425.968-.074-638.953-.003-8.289-.456-16.683-1.81-24.845-3.357-20.247-14.054-34.781-34.89-39.386-9.32-2.06-19.064-3.019-28.62-3.054-67.328-.252-134.656-.17-201.985-.08-6.97.009-13.986.382-20.902 1.233-22.362 2.753-36.454 15.001-41.469 36.985-2.01 8.816-2.822 18.088-2.826 27.154-.141 287.978-.132 575.957-.034 863.936.002 8.108.538 16.34 2.001 24.298 3.57 19.418 14.265 33.27 34.103 37.851 9.622 2.222 19.708 3.406 29.586 3.414 225.483.185 450.966.161 676.45.065 7.95-.004 15.996-.578 23.83-1.892 16.683-2.8 30.358-10.684 36.48-27.245 3.051-8.255 5.066-17.37 5.222-26.137.637-35.653.372-71.321.44-107.984z"/><path fill="#FFF" d="M89.821 1430c0-287.333-.01-574.165.06-860.998.002-7.072.077-14.315 1.524-21.182 4.023-19.092 15.299-28.745 34.847-30.75a152.9 152.9 0 0 1 15.464-.802c67.167-.051 134.334-.167 201.499.125 8.976.04 18.233 1.216 26.848 3.666 14.083 4.005 21.515 14.605 22.897 28.965 1.109 11.522 1.833 23.13 1.852 34.701.148 88.666.081 177.333.081 266v6.235h224.294v-5.544c0-94.166-.077-188.333.131-282.499.019-8.503.902-17.264 3.089-25.45 4.453-16.671 17.389-23.438 33.407-25.376 5.442-.659 10.971-.818 16.46-.823 66.834-.053 133.668-.172 200.5.128 9.03.04 18.351 1.237 27.008 3.734 14 4.039 22.707 16.474 23.195 31.043.589 17.592 1.244 35.193 1.25 52.79.077 275.666.071 551.332-.04 826.998-.003 7.563-.71 15.27-2.269 22.661-3.754 17.8-13.21 26.41-31.351 29.187-5.68.87-11.502 1.14-17.26 1.142-70.831.022-141.664-.06-212.496-.108-21.403-.015-36.998-12.338-40.644-32.803-1.1-6.174-.94-12.616-.943-18.936-.053-96.166-.037-192.332-.037-288.499v-6.17H394.893v5.83c0 96.333.048 192.667-.093 289-.011 7.542-.737 15.201-2.188 22.6-3.181 16.226-17.141 27.666-33.762 28.114-18.108.488-36.223.94-54.336.976-58.498.118-116.995.074-175.493.013-18.162-.02-33.109-11.577-36.972-29.374-1.699-7.824-1.542-16.05-2.228-24.594z"/><path fill="#E6C7E2" d="M1904.252 1335c-.068 36.163.197 71.831-.44 107.484-.156 8.767-2.17 17.882-5.223 26.137-6.121 16.56-19.796 24.445-36.48 27.245-7.833 1.314-15.88 1.888-23.83 1.892-225.483.096-450.966.12-676.449-.065-9.878-.008-19.964-1.192-29.586-3.414-19.838-4.58-30.533-18.433-34.103-37.85-1.463-7.959-1.999-16.191-2.001-24.3-.098-287.978-.107-575.957.034-863.935.004-9.066.815-18.338 2.826-27.154 5.015-21.984 19.107-34.232 41.469-36.985 6.916-.851 13.932-1.224 20.902-1.234 67.329-.089 134.657-.171 201.985.08 9.556.036 19.3.995 28.62 3.055 20.836 4.605 31.533 19.139 34.89 39.386 1.354 8.162 1.807 16.556 1.81 24.846.094 212.984.074 425.968.074 638.952v6.709h156.463v-6.024c0-64.662-.143-129.324.152-193.985a135.618 135.618 0 0 1 3.44-29.58c4.626-20.089 18.684-30.708 38.335-34.14 7.978-1.395 16.196-1.94 24.308-1.96 62.662-.155 125.324-.195 187.985.04 8.902.033 17.998.865 26.656 2.849 21.732 4.98 33.98 18.939 36.814 41.079.947 7.402 1.289 14.928 1.294 22.397.08 105.992.055 211.983.055 318.475z"/></svg>
