<?xml version="1.0" standalone="no"?>
<!DOCTYPE svg PUBLIC "-//W3C//DTD SVG 20010904//EN"
 "http://www.w3.org/TR/2001/REC-SVG-20010904/DTD/svg10.dtd">
<svg version="1.0" xmlns="http://www.w3.org/2000/svg"
 width="700.000000pt" height="700.000000pt" viewBox="0 0 700.000000 700.000000"
 preserveAspectRatio="xMidYMid meet">
<metadata>
Created by potrace 1.14, written by Peter Selinger 2001-2017
</metadata>
<g transform="translate(0.000000,700.000000) scale(0.100000,-0.100000)"
fill="#000000" stroke="none">
<path d="M3407 6984 c-1 -1 -58 -4 -127 -8 -69 -3 -138 -8 -155 -11 -16 -2
-80 -11 -142 -20 -92 -13 -183 -30 -313 -60 -101 -23 -378 -110 -445 -140 -16
-8 -59 -26 -95 -40 -276 -114 -586 -304 -860 -528 -76 -63 -326 -307 -390
-382 -143 -167 -348 -452 -334 -465 5 -4 176 -103 379 -220 660 -379 886 -513
907 -537 76 -86 -2 -291 -123 -323 -65 -18 -102 -7 -232 68 -67 38 -138 79
-157 90 -19 11 -134 77 -255 147 -121 70 -236 136 -255 147 -19 11 -60 35 -90
53 -113 68 -363 205 -374 205 -12 0 -86 -169 -137 -310 -28 -81 -92 -296 -103
-350 -3 -14 -12 -59 -21 -100 -25 -114 -26 -120 -40 -225 -4 -27 -8 -60 -10
-72 -19 -124 -25 -519 -11 -688 25 -304 123 -730 225 -987 79 -199 184 -409
291 -582 66 -106 213 -311 280 -390 360 -421 779 -733 1280 -954 192 -85 328
-132 537 -187 143 -37 146 -38 278 -61 129 -22 125 -21 201 -29 38 -4 78 -10
89 -12 37 -8 519 -11 600 -3 100 10 205 21 225 25 8 1 49 8 90 15 750 122
1476 524 1993 1102 139 156 324 411 421 582 32 55 166 323 166 330 0 3 11 30
25 60 14 30 25 58 25 61 0 4 7 21 15 38 35 78 126 386 151 512 2 11 8 43 14
70 63 322 82 757 46 1090 -11 99 -17 143 -21 166 -3 13 -7 38 -10 54 -8 53
-15 88 -36 180 -12 50 -22 97 -24 105 -15 68 -102 337 -125 385 -5 11 -21 49
-36 85 -226 554 -651 1089 -1159 1457 -281 204 -627 379 -960 486 -117 38
-287 83 -351 93 -22 3 -42 8 -45 10 -21 13 -313 48 -494 60 -87 6 -304 11
-308 8z"/>
</g>
</svg>
